<svg viewBox="0 0 512 512" width="96" height="96" xmlns="http://www.w3.org/2000/svg" fill="#000000"><g id="SVGRepo_bgCarrier" stroke-width="0"></g><g id="SVGRepo_tracerCarrier" stroke-linecap="round" stroke-linejoin="round"></g><g id="SVGRepo_iconCarrier"> <circle cx="256" cy="256" r="256" style="fill:#e57000"></circle> <path d="M256 248.9 171.35 155.8c3.3-3.3 7.1-5.85 11.45-7.75 4.35-1.9 9.05-2.85 14.05-2.85 5.35.05 10.2 1.1 14.65 3.15 4.45 2.05 8.3 4.9 11.55 8.5l32.9 35.95 32.7-35.95c3.4-3.6 7.35-6.45 11.8-8.5 4.5-2.05 9.35-3.1 14.6-3.15 5 .05 9.7 1 14.05 2.85 4.35 1.9 8.2 4.45 11.45 7.75L256 248.9m0 14.2L171.35 356.2c3.3 3.3 7.1 5.85 11.45 7.75 4.35 1.9 9.05 2.85 14.05 2.85 5.25-.05 10.1-1.1 14.6-3.15s8.45-4.9 11.8-8.5l32.7-35.95 32.9 35.95c3.25 3.6 7.1 6.45 11.55 8.5 4.45 2.05 9.3 3.1 14.65 3.15 5-.05 9.7-1 14.05-2.85 4.35-1.9 8.2-4.45 11.45-7.75L256 263.1M248.9 256 185.15 186.1c-3.7-3.95-8-7.05-12.95-9.35-4.9-2.25-10.25-3.4-15.95-3.45-5.5.05-10.65 1.1-15.4 3.15-4.8 2.05-8.95 4.9-12.55 8.45L192.95 256 128.25 327.1c3.6 3.7 7.8 6.6 12.55 8.7 4.8 2.1 9.9 3.15 15.4 3.15 5.75-.05 11.1-1.2 16.05-3.45 4.95-2.25 9.25-5.4 12.85-9.35L248.9 256m14.2 0 63.75 70.15c3.6 3.95 7.9 7.05 12.85 9.35 4.95 2.25 10.3 3.4 16.05 3.45 5.5-.05 10.65-1.1 15.4-3.15 4.8-2.1 8.95-4.95 12.55-8.7L319.05 256l64.7-71.1c-3.6-3.6-7.8-6.4-12.55-8.45-4.8-2.05-9.9-3.1-15.4-3.15-5.7.05-11.05 1.2-15.95 3.45-4.9 2.25-9.25 5.4-12.95 9.35L263.1 256" style="fill:#fff"></path> </g></svg>